<svg id="Layer_1" data-name="Layer 1" xmlns="http://www.w3.org/2000/svg" viewBox="0 0 269.06 7"><defs><style>.cls-1{fill:#232323;}</style></defs><title>Underline</title><path id="_Compound_Path_" data-name="&lt;Compound Path&gt;" class="cls-1" d="M213.63,1a7.93,7.93,0,0,0,1.76.17h1.32a8.05,8.05,0,0,0,2.2-.13l5.27.13,8.79,0,1.32.17c1.32,0,2.2,0,3.08,0s1.76.09,2.64.09c0,0,1.32-.13,3.52-.21l3.08,0c1.76,0,3.08,0,4,.09,1.32,0,2.2,0,3.08,0,2.64.21,4.39.3,6.15.3l-.44.17-2.2,0v.17H258c.88,0,2.2,0,3.52,0C270.31,2,269,4.32,269,4.32s-5.71.51-11.42.6c.88.13,1.32.21.88.26-1.32,0-2.64,0-4,0l-.44.17c2.64,0-13.62.47-15.38.72-4.39,0-8.79.09-12.74.26l-5.27-.13c0,.13-5.27.21-15.82.21l-19.77.21-1.76-.09c-23.29,0-52.29.09-86.56.09,0,0-2.64,0-4,0-18.45,0-30.32,0-35.15,0l-7-.09a4.45,4.45,0,0,1-1.32-.09c-2.64,0-11,0-24.61,0l-4-.13-.44.17-3.08,0c-12.3-.38-18-1-17.14-1.66a4.63,4.63,0,0,0,1.32-.21L1,4.11H2.28C1.41,3.85,1,3.64,1,3.56a28.61,28.61,0,0,0,3.52-.21C4,3,4,2.87,4,2.75H5.36c-.88-.09-.88-.17-.88-.21l1.32-.3s0-.09-.88-.13c2.2-.47,3.52-.85,3.52-1A5.35,5.35,0,0,1,6.68.92,15.24,15.24,0,0,1,10.19.79h3.08s4-.13,11.86-.17A6,6,0,0,1,26.89.45l1.32,0c1.32,0,1.76,0,1.76.13L52.37.75c3.08,0,4.83-.13,4.83-.17-.88,0-.88,0-.88-.13l1.76,0V.58S77.86.62,82.25.45l3.08,0a7.62,7.62,0,0,1,2.2-.17h.88l5.71.47c6.59,0,18.89,0,18.89,0a7.09,7.09,0,0,1,1.76.17L124,.79c2.2,0,4.39,0,7,.13h18l-.44,0c1.32,0,2.64,0,3.52,0,20.21.09,30.76.09,31.2,0l4.83.09q2,.06,4,0C193,1,193,1,193,1c10.11,0,16.7,0,20.65,0Z"/></svg>